<svg width="16" height="16" viewBox="0 0 16 16" fill="none" xmlns="http://www.w3.org/2000/svg">
<g clip-path="url(#clip0_2458_489)">
<path d="M14.3003 10.9979V12.9479C14.3011 13.1289 14.264 13.3081 14.1915 13.4739C14.1189 13.6398 14.0126 13.7887 13.8792 13.9111C13.7458 14.0335 13.5883 14.1266 13.4168 14.1846C13.2453 14.2426 13.0636 14.2642 12.8833 14.2479C10.8832 14.0305 8.96187 13.3471 7.27382 12.2524C5.70331 11.2544 4.37179 9.92288 3.37382 8.35237C2.27531 6.65665 1.59168 4.72601 1.37832 2.71687C1.36208 2.53712 1.38344 2.35596 1.44105 2.18492C1.49865 2.01389 1.59124 1.85672 1.71292 1.72342C1.8346 1.59013 1.9827 1.48363 2.14779 1.41071C2.31288 1.33779 2.49134 1.30004 2.67182 1.29987H4.62182C4.93727 1.29676 5.24309 1.40847 5.48227 1.61416C5.72145 1.81986 5.87767 2.10551 5.92182 2.41787C6.00413 3.04191 6.15677 3.65464 6.37682 4.24437C6.46428 4.47702 6.4832 4.72986 6.43136 4.97294C6.37952 5.21602 6.25908 5.43914 6.08432 5.61587L5.25882 6.44137C6.18413 8.06867 7.53152 9.41606 9.15882 10.3414L9.98432 9.51587C10.1611 9.34111 10.3842 9.22067 10.6273 9.16883C10.8703 9.11699 11.1232 9.13592 11.3558 9.22337C11.9456 9.44343 12.5583 9.59606 13.1823 9.67837C13.4981 9.72291 13.7864 9.88195 13.9926 10.1252C14.1987 10.3685 14.3082 10.6791 14.3003 10.9979Z" stroke="#3A3A3C" stroke-width="1.3" stroke-linecap="round" stroke-linejoin="round"/>
</g>
<defs>
<clipPath id="clip0_2458_489">
<rect width="15.6" height="15.6" fill="white"/>
</clipPath>
</defs>
</svg>
